# xmcd
#
# Track frame offsets:
#	150
#	12085
#	25629
#	40982
#	69010
#
# Disc length: 1866 seconds
#
# Revision: 0
# Processed by: cddbd v1.5.1PL0 Copyright (c) Steve Scherf et al.
# Submitted via: dBpowerAMP V4.0
#
DISCID=2c074805
DTITLE=Bonny/Sweeney - "I Gave You"
DYEAR=2005
DGENRE=Country
TTITLE0=I Gave You
TTITLE1=My Circle
TTITLE2=Four Screams
TTITLE3=Birch Ballad
TTITLE4=DATA
EXTD=
EXTT0=
EXTT1=
EXTT2=
EXTT3=
EXTT4=
PLAYORDER=
